<mxfile host="app.diagrams.net" modified="2022-08-05T11:20:32.037Z" agent="5.0 (Macintosh; Intel Mac OS X 10_15_7) AppleWebKit/605.1.15 (KHTML, like Gecko) Version/15.5 Safari/605.1.15" etag="pQIUVpty84yyUrRYcI77" version="20.2.3" type="github">
  <diagram id="CSUjXxcrEqgTYP2Umb-6" name="Page-1">
    <mxGraphModel dx="2741" dy="1185" grid="1" gridSize="10" guides="1" tooltips="1" connect="1" arrows="1" fold="1" page="0" pageScale="1" pageWidth="850" pageHeight="1100" math="0" shadow="0">
      <root>
        <mxCell id="0" />
        <mxCell id="1" parent="0" />
      </root>
    </mxGraphModel>
  </diagram>
</mxfile>
